{"glyphs":{"0":{"ha":736,"x_min":63,"x_max":674,"o":"m 608 138 q 363 -17 529 -17 q 121 139 197 -17 q 63 450 63 257 q 129 778 63 650 q 378 933 211 933 q 615 779 542 933 q 674 464 674 660 q 608 138 674 261 m 369 836 q 225 717 274 836 q 185 458 185 618 q 368 82 185 82 q 515 199 467 82 q 554 454 554 294 q 369 836 554 836 z "},"1":{"ha":449,"x_min":17,"x_max":340,"o":"m 221 0 l 221 778 l 57 683 l 17 767 l 246 924 l 340 924 l 340 0 l 221 0 z "},"2":{"ha":588,"x_min":38,"x_max":531,"o":"m 38 0 l 38 76 q 385 689 385 485 q 246 838 385 838 q 71 790 158 838 l 42 881 q 263 936 153 936 q 506 701 506 936 q 200 100 506 494 l 531 100 l 531 0 l 38 0 z "},"3":{"ha":569,"x_min":32,"x_max":513,"o":"m 340 482 q 469 390 424 464 q 513 224 513 322 q 399 -42 513 56 q 113 -135 289 -135 q 38 -129 67 -135 l 38 -29 q 119 -33 75 -33 q 307 33 232 -33 q 386 224 386 106 q 194 411 386 411 q 158 410 176 411 l 103 406 l 99 497 l 154 501 q 296 561 243 510 q 350 694 350 613 q 208 833 350 833 q 58 803 133 833 l 32 897 q 224 932 131 932 q 403 878 338 932 q 474 711 474 819 q 340 482 474 556 z "},"4":{"ha":592,"x_min":14,"x_max":578,"o":"m 367 968 l 143 317 l 371 317 l 388 631 l 479 631 l 479 317 l 578 317 l 578 219 l 479 219 l 479 0 l 368 0 l 368 219 l 39 219 l 14 299 l 253 968 l 367 968 z "},"5":{"ha":572,"x_min":63,"x_max":526,"o":"m 196 547 q 261 551 236 551 q 449 483 381 551 q 526 256 526 407 q 417 -32 526 69 q 128 -128 311 -128 q 63 -124 86 -128 l 63 -22 q 125 -28 89 -28 q 326 46 251 -28 q 403 256 403 122 q 214 460 403 460 q 85 443 147 460 l 108 917 l 501 917 l 501 825 l 210 825 l 196 547 z "},"6":{"ha":710,"x_min":78,"x_max":639,"o":"m 579 935 q 514 939 546 939 q 319 868 392 939 q 206 572 228 781 q 381 625 286 625 q 572 542 506 625 q 639 314 639 460 q 565 75 639 167 q 358 -19 488 -19 q 129 132 200 -19 q 78 417 78 242 q 503 1040 78 1040 q 576 1036 551 1040 l 579 935 m 199 475 l 199 418 q 361 79 199 79 q 476 147 436 79 q 514 310 514 210 q 356 532 514 532 q 199 475 290 532 z "},"7":{"ha":499,"x_min":-4,"x_max":482,"o":"m -4 818 l -4 917 l 471 917 l 482 847 l 175 -110 l 50 -110 l 347 818 l -4 818 z "},"8":{"ha":669,"x_min":58,"x_max":611,"o":"m 231 542 q 86 794 86 653 q 163 979 86 908 q 338 1044 233 1044 q 510 982 440 1044 q 586 807 586 915 q 435 538 586 656 q 611 247 611 414 q 526 46 611 119 q 335 -19 450 -19 q 143 49 219 -19 q 58 243 58 121 q 231 542 58 406 m 310 483 q 176 254 176 369 q 222 126 176 178 q 335 76 268 76 q 446 122 400 76 q 494 243 494 169 q 310 483 494 357 m 351 593 q 469 797 469 686 q 429 906 469 860 q 333 951 389 951 q 242 910 279 951 q 203 801 203 867 q 351 593 203 690 z "},"9":{"ha":710,"x_min":65,"x_max":626,"o":"m 125 -21 q 190 -25 160 -25 q 385 44 311 -25 q 497 340 475 133 q 324 289 418 289 q 132 372 199 289 q 65 600 65 454 q 139 839 65 747 q 346 933 217 933 q 575 782 504 933 q 626 497 626 672 q 201 -126 626 -126 q 128 -122 153 -126 l 125 -21 m 504 439 q 506 496 506 457 q 343 835 506 835 q 228 767 268 835 q 190 604 190 704 q 349 382 190 382 q 504 439 415 382 z "}," ":{"ha":328,"x_min":0,"x_max":0,"o":""},"!":{"ha":361,"x_min":154,"x_max":313,"o":"m 274 306 l 164 306 l 154 1026 l 285 1026 l 274 306 m 290 4 q 235 -19 267 -19 q 178 4 200 -19 q 154 63 154 28 q 178 121 154 97 q 235 144 201 144 q 290 121 267 144 q 313 63 313 97 q 290 4 313 28 z "},"\"":{"ha":482,"x_min":64,"x_max":418,"o":"m 171 813 l 81 813 l 64 1042 l 64 1183 l 189 1183 l 189 1043 l 171 813 m 401 813 l 310 813 l 296 1042 l 296 1183 l 418 1183 l 418 1043 l 401 813 z "},"#":{"ha":800,"x_min":67,"x_max":733,"o":"m 599 213 l 599 -135 l 486 -135 l 486 213 l 317 213 l 317 -135 l 206 -135 l 206 213 l 67 213 l 67 311 l 204 311 l 204 597 l 67 597 l 67 694 l 206 694 l 206 1032 l 317 1032 l 317 694 l 485 694 l 485 1032 l 599 1032 l 599 694 l 733 694 l 733 597 l 599 597 l 599 311 l 732 311 l 732 213 l 599 213 m 485 597 l 317 597 l 317 311 l 485 311 l 485 597 z "},"$":{"ha":653,"x_min":47,"x_max":599,"o":"m 260 -12 q 47 51 135 0 l 86 163 q 265 88 167 103 l 286 482 q 142 622 182 571 q 75 806 75 710 q 146 976 75 911 q 315 1043 211 1035 l 324 1194 l 415 1194 l 407 1039 q 560 996 476 1031 l 528 899 q 401 939 471 928 l 381 567 q 529 422 488 476 q 599 228 599 331 q 529 57 599 122 q 350 -14 463 -4 l 340 -189 l 251 -189 l 260 -12 m 372 408 l 356 88 q 474 224 474 110 q 372 408 474 311 m 294 642 l 310 939 q 200 815 200 919 q 294 642 200 732 z "},"%":{"ha":857,"x_min":53,"x_max":801,"o":"m 149 76 l 82 147 l 710 892 l 776 819 l 149 76 m 363 625 q 228 560 311 560 q 97 622 146 560 q 53 764 53 679 q 94 897 53 840 q 232 965 143 965 q 363 911 315 965 q 408 764 408 858 q 363 625 408 683 m 290 847 q 231 879 267 879 q 167 840 189 879 q 149 764 149 808 q 231 646 149 646 q 314 764 314 646 q 290 847 314 815 m 757 46 q 624 -19 708 -19 q 492 43 542 -19 q 446 185 446 100 q 488 318 446 261 q 625 386 536 386 q 801 185 801 386 q 757 46 801 104 m 624 300 q 542 185 542 300 q 624 68 542 68 q 707 185 707 68 q 624 300 707 300 z "},"&":{"ha":764,"x_min":69,"x_max":771,"o":"m 544 621 q 389 490 504 576 q 771 88 440 429 l 693 -7 l 579 111 q 307 -18 450 -18 q 128 53 192 -18 q 69 224 69 117 q 222 504 69 376 q 147 729 147 617 q 208 906 147 842 q 388 971 271 971 q 554 919 492 971 q 617 782 617 868 q 544 621 617 699 m 510 183 q 293 414 343 356 q 189 229 189 319 q 224 122 189 167 q 321 75 261 75 q 510 183 404 75 m 324 578 q 496 775 496 696 q 458 851 496 824 q 382 876 425 876 q 378 876 381 876 q 297 838 328 876 q 265 738 265 799 q 324 578 265 665 z "},"'":{"ha":253,"x_min":64,"x_max":189,"o":"m 171 813 l 81 813 l 64 1042 l 64 1183 l 189 1183 l 189 1043 l 171 813 z "},"(":{"ha":379,"x_min":82,"x_max":392,"o":"m 308 -285 q 82 463 82 31 q 310 1207 82 842 l 390 1150 q 197 465 197 807 q 392 -231 197 82 l 308 -285 z "},")":{"ha":374,"x_min":-12,"x_max":292,"o":"m 72 -285 l -11 -229 q 175 461 175 118 q -12 1153 175 778 l 75 1207 q 292 463 292 843 q 72 -285 292 96 z "},"*":{"ha":678,"x_min":86,"x_max":636,"o":"m 401 481 l 599 582 l 636 468 l 417 399 l 568 192 l 472 121 l 358 342 l 253 119 l 156 189 l 301 399 l 86 463 l 122 576 l 319 482 l 296 747 l 421 747 l 401 481 z "},"+":{"ha":678,"x_min":67,"x_max":610,"o":"m 393 346 l 393 51 l 285 51 l 285 346 l 67 346 l 67 446 l 285 446 l 285 725 l 393 725 l 393 446 l 610 446 l 610 346 l 393 346 z "},",":{"ha":308,"x_min":60,"x_max":250,"o":"m 60 -165 q 128 -14 128 -85 q 110 42 128 13 q 92 97 92 69 q 160 163 92 163 q 226 125 201 163 q 250 28 250 88 q 132 -226 250 -97 l 60 -165 z "},"-":{"ha":513,"x_min":71,"x_max":438,"o":"m 71 404 l 71 503 l 438 503 l 438 404 l 71 404 z "},".":{"ha":311,"x_min":86,"x_max":244,"o":"m 222 4 q 167 -19 199 -19 q 110 4 132 -19 q 86 63 86 28 q 110 121 86 97 q 167 144 133 144 q 222 121 199 144 q 244 63 244 97 q 222 4 244 28 z "},"/":{"ha":465,"x_min":26,"x_max":471,"o":"m 132 -156 l 26 -122 l 364 1136 l 471 1103 l 132 -156 z "},":":{"ha":311,"x_min":86,"x_max":244,"o":"m 222 4 q 167 -19 199 -19 q 110 4 132 -19 q 86 63 86 28 q 110 121 86 97 q 167 144 133 144 q 222 121 199 144 q 244 63 244 97 q 222 4 244 28 m 222 608 q 167 585 199 585 q 110 608 132 585 q 86 667 86 632 q 110 725 86 701 q 167 749 133 749 q 222 725 199 749 q 244 667 244 701 q 222 608 244 632 z "},";":{"ha":317,"x_min":60,"x_max":250,"o":"m 60 -165 q 128 -14 128 -85 q 110 42 128 13 q 92 97 92 69 q 160 163 92 163 q 226 125 201 163 q 250 28 250 88 q 132 -226 250 -97 l 60 -165 m 222 608 q 167 585 199 585 q 110 608 132 585 q 86 667 86 632 q 110 725 86 701 q 167 749 133 749 q 222 725 199 749 q 244 667 244 701 q 222 608 244 632 z "},"<":{"ha":614,"x_min":79,"x_max":529,"o":"m 529 718 l 226 397 l 528 76 l 465 -1 l 79 397 l 464 793 l 529 718 z "},"=":{"ha":678,"x_min":67,"x_max":610,"o":"m 67 481 l 67 581 l 610 581 l 610 481 l 67 481 m 67 213 l 67 313 l 610 313 l 610 213 l 67 213 z "},">":{"ha":678,"x_min":114,"x_max":565,"o":"m 565 397 l 176 -1 l 117 76 l 414 397 l 114 719 l 181 793 l 565 397 z "},"?":{"ha":546,"x_min":72,"x_max":496,"o":"m 204 382 q 289 629 204 513 q 374 813 374 747 q 264 926 374 926 q 113 868 196 926 l 72 953 q 288 1024 179 1024 q 450 961 396 1024 q 496 819 496 907 q 410 601 496 724 q 322 375 322 478 l 322 300 l 204 300 l 204 382 m 321 4 q 265 -19 299 -19 q 210 4 232 -19 q 186 63 186 28 q 210 121 186 97 q 265 144 232 144 q 321 121 299 144 q 343 63 343 97 q 321 4 343 28 z "},"@":{"ha":1192,"x_min":85,"x_max":1106,"o":"m 393 89 q 346 306 346 176 q 429 600 346 481 q 638 719 513 719 q 814 660 721 719 l 814 222 q 882 74 814 74 q 968 171 938 74 q 994 394 994 257 q 903 754 994 621 q 629 896 806 896 q 322 754 442 896 q 194 336 194 601 q 297 -50 194 96 q 610 -207 408 -207 q 843 -160 735 -207 l 871 -250 q 603 -297 742 -297 q 217 -119 356 -297 q 85 332 85 50 q 238 811 85 629 q 621 988 386 988 q 968 838 835 988 q 1106 411 1106 682 q 1053 126 1106 240 q 858 -15 988 -15 q 729 103 750 -15 q 549 -15 667 -15 q 393 89 447 -15 m 706 611 q 636 631 672 631 q 504 536 553 631 q 458 321 458 450 q 490 149 458 217 q 581 76 524 76 q 657 114 621 76 q 706 206 693 151 l 706 611 z "},"A":{"ha":925,"x_min":68,"x_max":789,"o":"m 599 1003 l 628 1003 q 789 215 665 968 l 775 118 l 688 118 q 422 383 657 118 l 396 410 q 156 0 282 313 l 68 0 l 68 88 q 422 756 110 146 q 599 1003 449 881 m 540 796 q 424 501 540 735 l 697 233 l 688 383 q 599 796 636 563 l 540 796 z "},"B":{"ha":925,"x_min":26,"x_max":918,"o":"m 225 1003 l 258 1003 q 819 632 744 739 l 819 603 q 489 489 819 538 l 489 461 q 918 232 918 269 l 918 203 q 26 4 918 82 l 26 61 q 125 118 26 118 l 151 311 q 140 369 140 343 q 158 432 140 404 q 142 479 142 457 q 160 526 142 504 l 164 582 q 200 701 186 603 l 189 856 l 197 924 q 225 1003 203 983 m 276 860 l 283 561 l 492 560 l 635 585 l 731 635 l 276 860 m 258 432 l 224 103 l 369 128 l 524 133 l 782 218 q 258 432 374 432 z "},"C":{"ha":1003,"x_min":64,"x_max":931,"o":"m 526 -17 q 211 157 331 44 q 64 497 92 269 q 203 865 92 718 q 526 1011 315 1011 q 776 909 689 1011 q 871 651 864 807 l 789 679 q 721 839 781 767 q 494 939 661 911 q 251 780 301 869 q 169 507 200 690 q 306 194 204 275 q 525 96 408 114 q 732 147 642 96 q 847 313 822 197 l 931 315 q 806 85 917 157 q 526 -17 696 14 z "},"D":{"ha":1003,"x_min":114,"x_max":879,"o":"m 114 949 l 435 967 q 879 489 872 918 q 429 22 850 43 l 138 83 l 114 949 m 239 146 l 424 118 q 718 219 639 118 q 789 464 789 308 q 788 503 789 483 q 789 542 789 522 q 719 778 789 692 q 424 876 640 876 l 204 858 l 239 146 z "},"E":{"ha":925,"x_min":29,"x_max":914,"o":"m 704 999 l 731 929 l 281 390 l 461 436 q 914 517 557 482 l 914 482 q 499 350 914 413 l 165 214 l 439 192 q 810 68 711 104 q 731 0 810 0 l 365 76 l 221 88 l 44 83 l 29 157 q 704 999 210 582 z "},"F":{"ha":847,"x_min":67,"x_max":799,"o":"m 154 938 l 200 928 q 235 932 217 932 q 293 922 264 932 l 390 906 q 765 994 658 994 l 799 928 q 589 846 799 886 l 467 794 q 403 801 432 801 q 190 481 190 801 q 200 329 190 413 q 199 51 199 175 l 167 -4 l 133 -4 q 67 63 67 -4 l 97 628 l 86 919 l 154 938 m 379 479 l 403 433 l 368 388 l 308 392 l 249 396 l 165 407 l 167 494 l 379 479 z "},"G":{"ha":1079,"x_min":86,"x_max":990,"o":"m 544 -17 q 173 184 240 97 q 86 497 106 271 q 231 840 101 713 q 540 1011 361 968 q 815 903 721 1011 q 972 693 908 796 l 817 704 q 818 725 818 715 q 750 844 818 796 q 542 899 671 899 q 310 820 388 899 q 200 497 233 742 q 295 201 200 307 q 535 69 390 96 q 869 274 758 96 l 863 389 l 718 313 l 658 410 l 957 494 l 990 0 l 897 0 l 903 153 q 544 -17 761 -17 z "},"H":{"ha":1003,"x_min":44,"x_max":990,"o":"m 550 990 l 624 990 q 663 906 654 986 l 696 514 q 900 476 781 476 q 917 476 908 476 q 953 514 917 514 l 990 440 q 704 397 865 397 l 692 293 q 624 0 681 85 l 586 0 l 582 464 l 231 438 q 204 275 204 414 q 219 0 204 171 l 183 0 q 44 774 72 0 q 108 918 54 918 q 163 719 151 893 l 171 535 l 586 550 q 560 760 560 597 q 563 885 560 815 q 550 990 550 953 z "},"I":{"ha":385,"x_min":114,"x_max":267,"o":"m 190 1003 l 267 924 l 250 651 l 243 518 q 258 200 243 349 q 260 153 260 175 q 190 8 260 24 l 150 8 l 114 90 l 119 363 l 119 910 q 190 1003 132 963 z "},"J":{"ha":694,"x_min":36,"x_max":569,"o":"m 567 614 q 569 474 569 539 q 500 81 569 128 q 297 7 418 25 q 244 1 269 1 q 117 58 165 1 q 36 257 54 133 l 36 283 l 124 268 q 276 100 147 100 q 303 101 289 100 q 326 100 315 100 q 431 133 399 100 q 468 349 465 169 l 465 639 l 422 808 l 367 926 l 474 983 l 567 614 z "},"K":{"ha":925,"x_min":0,"x_max":893,"o":"m 89 968 q 140 347 117 915 l 682 968 l 711 968 q 771 899 771 957 l 728 860 q 260 347 444 510 l 403 319 q 711 276 568 308 l 793 251 q 888 189 888 246 q 885 165 888 178 q 892 140 892 150 q 847 114 892 114 q 786 122 824 114 q 163 265 771 174 l 178 61 q 188 28 188 40 q 149 0 188 0 l 58 0 l 58 35 l 0 829 q 89 968 44 968 z "},"L":{"ha":772,"x_min":85,"x_max":689,"o":"m 689 25 l 99 79 l 85 633 l 86 961 l 174 949 l 185 719 l 200 167 l 563 118 l 669 110 l 689 25 z "},"M":{"ha":1157,"x_min":0,"x_max":1100,"o":"m 1019 964 l 1056 964 q 1100 671 1090 935 l 1092 478 l 1088 128 q 1056 40 1081 78 l 950 40 l 969 172 l 985 726 l 639 174 l 574 181 l 358 643 q 106 0 143 0 l 0 0 l 38 92 q 340 857 286 744 q 528 522 419 844 q 618 333 590 383 l 1019 964 z "},"N":{"ha":1003,"x_min":22,"x_max":986,"o":"m 907 1008 q 986 928 986 996 q 831 339 865 633 l 846 156 q 851 117 851 135 q 746 4 851 38 q 751 114 751 65 q 675 318 751 303 l 363 488 l 200 599 l 160 97 l 22 4 l 22 44 q 111 736 104 506 l 119 829 q 193 908 146 908 q 254 846 236 889 l 226 718 q 746 406 568 433 l 779 621 q 907 1008 836 940 z "},"O":{"ha":1079,"x_min":92,"x_max":996,"o":"m 543 899 l 322 856 l 215 736 l 235 638 l 226 560 l 436 543 l 429 436 l 376 431 l 225 469 q 211 376 211 425 q 240 231 211 307 q 610 147 414 147 q 663 149 636 147 q 894 476 894 293 q 886 546 894 510 q 543 899 714 810 m 315 956 l 500 986 q 996 331 978 986 q 414 28 858 46 q 99 308 169 75 l 93 522 q 92 557 92 543 q 94 583 92 578 l 96 679 q 315 956 168 906 z "},"P":{"ha":925,"x_min":225,"x_max":828,"o":"m 321 994 l 360 994 q 828 618 457 990 l 828 550 q 306 369 828 439 l 385 168 l 418 69 q 325 15 403 42 l 225 347 q 243 824 243 644 l 243 926 q 321 994 254 994 m 342 838 l 318 464 l 544 489 q 746 565 632 517 q 357 901 669 658 l 342 838 z "},"Q":{"ha":1079,"x_min":0,"x_max":889,"o":"m 225 986 l 404 986 q 829 321 771 931 q 314 0 732 0 q 22 293 111 75 l 0 539 q 21 614 0 583 l 33 689 q 225 986 90 953 m 272 899 l 153 707 l 150 593 l 350 533 l 335 435 l 289 438 l 150 494 q 133 382 133 436 q 171 232 133 301 q 519 125 324 125 q 718 493 718 294 q 272 899 669 854 m 889 181 l 814 67 l 563 303 l 597 404 l 889 181 z "},"R":{"ha":1003,"x_min":111,"x_max":906,"o":"m 888 64 l 797 0 l 704 265 q 621 381 679 336 q 494 450 563 425 l 238 450 l 208 25 l 111 50 l 164 903 l 551 994 q 735 958 667 994 q 855 864 804 922 q 906 715 906 806 q 828 556 881 615 q 682 453 776 496 l 682 450 q 804 249 758 386 l 888 64 m 251 533 l 536 543 q 715 582 660 543 q 815 713 769 621 q 581 903 792 857 l 246 818 l 251 533 z "},"S":{"ha":925,"x_min":90,"x_max":751,"o":"m 494 994 l 525 994 q 588 932 588 985 l 240 525 l 199 490 q 711 621 488 590 l 751 525 q 401 0 610 132 l 401 31 q 649 515 401 93 l 556 492 q 153 374 464 472 l 90 465 l 90 497 q 494 994 442 942 z "},"T":{"ha":847,"x_min":0,"x_max":828,"o":"m 804 953 l 828 882 q 508 785 794 854 q 433 196 463 386 l 488 282 l 560 353 q 585 318 560 318 q 438 0 456 64 l 390 0 q 342 106 342 0 q 414 740 342 246 l 401 767 q 375 765 390 765 q 164 782 307 765 q 115 781 138 781 q 0 811 15 781 l 0 882 l 271 867 q 286 867 278 867 q 804 953 450 867 z "},"U":{"ha":1003,"x_min":50,"x_max":892,"o":"m 501 -17 q 288 81 347 10 q 194 223 229 153 q 79 479 158 293 l 50 767 l 147 803 l 214 428 q 374 172 328 218 q 506 71 419 125 q 681 158 626 103 q 775 417 736 214 l 724 932 l 832 975 l 868 701 l 892 419 q 824 172 856 239 q 712 44 792 104 q 501 -17 632 -17 z "},"V":{"ha":925,"x_min":96,"x_max":799,"o":"m 799 871 l 689 590 l 574 168 l 424 181 l 247 500 l 96 886 l 199 953 l 276 660 l 418 333 l 517 289 l 635 782 l 683 949 l 799 871 z "},"W":{"ha":1310,"x_min":35,"x_max":1182,"o":"m 1182 806 l 982 100 l 890 33 l 781 310 l 644 561 l 403 75 l 301 68 l 156 494 l 35 907 l 147 910 l 235 521 l 353 185 l 481 443 l 607 690 l 703 644 l 932 207 l 1094 843 l 1182 806 z "},"X":{"ha":925,"x_min":0,"x_max":938,"o":"m 757 1010 l 867 1010 l 542 649 q 938 181 907 378 l 829 181 q 550 518 728 356 l 492 549 q 253 0 349 269 l 144 0 l 179 119 q 397 613 397 589 q 0 901 131 847 q 72 974 11 974 l 144 939 l 467 678 q 757 1010 625 915 z "},"Y":{"ha":925,"x_min":0,"x_max":911,"o":"m 801 961 l 911 990 l 911 872 q 558 214 654 504 l 396 0 l 390 88 q 474 443 474 329 l 436 475 l 54 804 l 0 872 q 79 951 13 951 l 118 951 q 554 515 147 903 l 801 961 z "},"Z":{"ha":847,"x_min":29,"x_max":839,"o":"m 115 983 q 839 694 661 744 l 839 665 q 250 222 839 639 q 515 149 463 215 q 642 169 586 169 q 724 156 688 169 q 747 157 736 157 q 810 115 810 157 l 810 88 q 732 35 810 35 q 688 38 713 35 q 83 218 83 124 q 94 244 83 232 q 643 638 492 538 q 29 897 133 860 l 29 926 q 115 983 29 983 z "},"[":{"ha":415,"x_min":110,"x_max":383,"o":"m 110 -183 l 110 1208 l 383 1208 l 383 1117 l 213 1117 l 213 -92 l 383 -92 l 383 -183 l 110 -183 z "},"\\":{"ha":386,"x_min":-46,"x_max":401,"o":"m -46 1107 l 63 1142 l 401 -122 l 292 -156 l -46 1107 z "},"]":{"ha":414,"x_min":32,"x_max":304,"o":"m 32 -183 l 32 -92 l 201 -92 l 201 1117 l 32 1117 l 32 1208 l 304 1208 l 304 -183 l 32 -183 z "},"^":{"ha":660,"x_min":0,"x_max":656,"o":"m 525 428 l 326 925 l 131 428 l 0 428 l 274 1057 l 382 1057 l 656 428 l 525 428 z "},"_":{"ha":596,"x_min":10,"x_max":583,"o":"m 10 -108 l 10 -18 l 583 -18 l 583 -108 l 10 -108 z "},"`":{"ha":169,"x_min":-49,"x_max":188,"o":"m 57 1101 l 188 885 l 110 847 l -49 1044 l 57 1101 z "},"a":{"ha":629,"x_min":61,"x_max":535,"o":"m 436 0 l 424 72 q 228 -15 300 -15 q 101 44 147 -15 q 61 185 61 99 q 404 403 61 393 l 404 544 q 303 675 404 675 q 122 622 229 675 l 96 713 q 319 767 238 767 q 521 547 521 767 l 521 211 q 535 0 521 146 l 436 0 m 406 329 q 249 306 300 326 q 171 197 171 275 q 269 72 171 72 q 406 142 314 72 l 406 329 z "},"b":{"ha":710,"x_min":113,"x_max":638,"o":"m 343 -19 q 113 49 219 -19 l 113 1128 l 231 1128 l 231 728 q 394 769 306 769 q 638 394 638 769 q 343 -19 638 -19 m 365 671 q 231 629 286 671 l 231 111 q 346 79 275 79 q 514 388 514 79 q 365 671 514 671 z "},"c":{"ha":557,"x_min":72,"x_max":526,"o":"m 526 28 q 342 -14 449 -14 q 72 371 72 -14 q 357 763 72 763 q 524 729 456 763 l 499 631 q 363 668 435 668 q 194 385 194 668 q 240 160 194 239 q 364 82 283 82 q 501 119 429 82 l 526 28 z "},"d":{"ha":711,"x_min":74,"x_max":599,"o":"m 599 26 q 353 -19 468 -19 q 74 369 74 -19 q 139 650 74 546 q 364 769 214 769 q 481 751 419 769 l 481 1128 l 599 1128 l 599 26 m 481 642 q 363 671 432 671 q 196 374 196 671 q 358 78 196 78 q 481 99 424 78 l 481 642 z "},"e":{"ha":639,"x_min":74,"x_max":582,"o":"m 181 374 q 222 149 182 218 q 360 76 264 76 q 539 131 435 76 l 567 40 q 350 -18 453 -18 q 74 368 74 -18 q 344 767 74 767 q 582 451 582 767 q 576 374 582 406 l 181 374 m 182 451 l 471 451 q 471 461 471 456 q 339 682 471 682 q 182 451 199 682 z "},"f":{"ha":400,"x_min":42,"x_max":507,"o":"m 482 1029 q 363 1056 418 1056 q 269 1018 294 1056 q 246 894 246 983 l 246 749 l 408 749 l 408 660 l 246 660 l 246 0 l 128 0 l 128 660 l 42 660 l 42 749 l 128 749 l 128 894 q 176 1086 128 1025 q 346 1149 229 1149 q 507 1118 426 1149 l 482 1029 z "},"g":{"ha":626,"x_min":47,"x_max":624,"o":"m 417 749 q 588 919 515 900 l 624 828 q 481 701 540 806 q 542 507 542 631 q 475 311 542 376 q 311 251 415 251 q 250 257 276 251 q 233 193 233 228 q 290 111 233 143 q 415 63 304 104 q 596 -156 596 -7 q 503 -333 596 -276 q 313 -378 431 -378 q 47 -175 47 -378 q 175 68 47 -79 q 138 174 138 110 q 178 286 138 226 q 86 507 86 349 q 150 707 86 640 q 313 769 210 769 q 417 749 371 769 m 400 -43 q 319 -10 375 -31 q 238 24 263 11 q 147 -154 147 -87 q 313 -294 147 -294 q 485 -167 485 -294 q 400 -43 485 -86 m 311 683 q 188 508 188 683 q 314 336 188 336 q 439 507 439 336 q 311 683 439 683 z "},"h":{"ha":735,"x_min":113,"x_max":628,"o":"m 510 0 l 510 511 q 415 663 510 663 q 231 565 338 663 l 231 0 l 113 0 l 113 1129 l 231 1129 l 226 665 q 458 767 351 767 q 628 531 628 767 l 628 0 l 510 0 z "},"i":{"ha":357,"x_min":103,"x_max":254,"o":"m 119 0 l 119 749 l 239 749 l 239 0 l 119 0 m 232 933 q 178 911 210 911 q 124 933 144 911 q 103 990 103 956 q 125 1047 103 1025 q 178 1071 146 1071 q 232 1047 210 1071 q 254 990 254 1025 q 232 933 254 956 z "},"j":{"ha":357,"x_min":-49,"x_max":256,"o":"m 239 749 l 239 21 q 186 -212 239 -142 q -26 -322 131 -287 l -49 -226 q 81 -158 46 -201 q 121 14 121 -108 l 121 749 l 239 749 m 233 933 q 179 911 211 911 q 125 933 146 911 q 104 990 104 956 q 126 1047 104 1025 q 179 1071 147 1071 q 233 1047 211 1071 q 256 990 256 1025 q 233 933 256 956 z "},"k":{"ha":635,"x_min":113,"x_max":638,"o":"m 376 429 l 638 0 l 493 0 l 306 335 l 226 228 l 226 0 l 113 0 l 113 1128 l 231 1128 l 231 568 l 226 378 l 474 749 l 617 749 l 376 429 z "},"l":{"ha":350,"x_min":115,"x_max":235,"o":"m 115 0 l 115 1128 l 235 1128 l 235 0 l 115 0 z "},"m":{"ha":1114,"x_min":113,"x_max":1006,"o":"m 500 0 l 500 528 q 413 663 500 663 q 231 564 333 663 l 231 0 l 113 0 l 113 749 l 218 749 l 226 663 q 457 767 356 767 q 606 658 575 767 q 846 767 738 767 q 1006 550 1006 767 l 1006 0 l 888 0 l 888 528 q 800 663 888 663 q 618 563 725 663 l 618 0 l 500 0 z "},"n":{"ha":735,"x_min":113,"x_max":626,"o":"m 508 0 l 508 528 q 486 635 508 603 q 418 663 465 663 q 231 564 338 663 l 231 0 l 113 0 l 113 749 l 218 749 l 226 663 q 464 767 358 767 q 626 550 626 767 l 626 0 l 508 0 z "},"o":{"ha":708,"x_min":72,"x_max":636,"o":"m 139 653 q 363 767 214 767 q 636 385 636 767 q 350 -18 636 -18 q 136 92 208 -18 q 72 367 72 190 q 139 653 72 549 m 353 78 q 515 382 515 78 q 357 672 515 672 q 193 372 193 672 q 353 78 193 78 z "},"p":{"ha":710,"x_min":113,"x_max":638,"o":"m 113 725 q 358 771 243 771 q 638 382 638 771 q 572 101 638 206 q 347 -18 497 -18 q 231 0 292 -18 l 231 -376 l 113 -376 l 113 725 m 231 110 q 349 81 279 81 q 515 378 515 81 q 353 674 515 674 q 231 653 288 674 l 231 110 z "},"q":{"ha":711,"x_min":76,"x_max":601,"o":"m 371 771 q 601 703 494 771 l 601 -376 l 483 -376 l 483 24 q 319 -18 408 -18 q 76 357 76 -18 q 371 771 76 771 m 349 81 q 483 122 428 81 l 483 640 q 368 672 439 672 q 200 364 200 672 q 349 81 200 81 z "},"r":{"ha":524,"x_min":113,"x_max":485,"o":"m 478 654 q 460 656 469 656 q 229 450 325 656 l 229 0 l 113 0 l 113 749 l 229 749 l 229 594 q 333 725 285 689 q 457 764 385 764 q 485 763 471 764 l 478 654 z "},"s":{"ha":529,"x_min":54,"x_max":482,"o":"m 454 739 l 432 643 q 301 676 353 676 q 190 576 190 676 q 236 481 190 525 q 336 408 254 464 q 482 182 482 310 q 417 29 482 82 q 257 -19 357 -19 q 54 24 147 -19 l 83 122 q 246 74 167 74 q 361 179 361 74 q 315 278 361 233 q 215 354 293 300 q 69 569 69 454 q 133 719 69 665 q 289 771 194 771 q 454 739 358 771 z "},"t":{"ha":432,"x_min":31,"x_max":436,"o":"m 436 11 q 293 -18 378 -18 q 156 31 194 -18 q 117 192 117 78 l 117 660 l 31 660 l 31 749 l 117 749 l 117 997 l 235 1026 l 235 749 l 407 749 l 407 660 l 235 660 l 235 207 q 253 113 235 140 q 315 83 271 83 q 415 108 368 83 l 436 11 z "},"u":{"ha":735,"x_min":110,"x_max":624,"o":"m 228 749 l 228 221 q 318 88 228 88 q 506 185 401 88 l 506 749 l 624 749 l 624 0 l 518 0 l 510 85 q 274 -18 378 -18 q 110 200 110 -18 l 110 749 l 228 749 z "},"v":{"ha":622,"x_min":11,"x_max":611,"o":"m 360 0 l 265 0 l 11 749 l 144 749 l 318 160 l 483 749 l 611 749 l 360 0 z "},"w":{"ha":915,"x_min":26,"x_max":889,"o":"m 717 0 l 636 0 l 461 581 l 285 0 l 204 0 l 26 749 l 147 749 l 261 189 l 424 749 l 504 749 l 668 190 l 775 749 l 889 749 l 717 0 z "},"x":{"ha":594,"x_min":26,"x_max":576,"o":"m 322 460 l 443 749 l 569 749 l 390 372 l 371 371 l 576 0 l 440 0 l 281 288 l 161 -1 l 35 -1 l 213 375 l 232 375 l 26 749 l 163 749 l 322 460 z "},"y":{"ha":604,"x_min":10,"x_max":600,"o":"m 361 -64 q 251 -274 321 -201 q 78 -382 192 -336 l 35 -286 q 249 -46 197 -212 l 271 26 l 226 29 l 10 749 l 139 749 l 310 111 l 478 749 l 600 749 l 361 -64 z "},"z":{"ha":535,"x_min":43,"x_max":500,"o":"m 47 0 l 43 74 l 357 657 l 61 657 l 61 749 l 486 749 l 494 675 l 179 93 l 500 93 l 500 0 l 47 0 z "},"{":{"ha":401,"x_min":33,"x_max":350,"o":"m 332 -185 q 207 -114 242 -154 q 157 72 157 -56 l 157 263 q 33 493 157 475 l 33 563 q 157 763 157 579 l 157 996 q 217 1163 157 1104 q 332 1213 263 1207 l 344 1133 q 257 979 257 1129 l 257 761 q 156 531 257 588 q 257 296 257 481 l 257 60 q 350 -106 257 -67 l 332 -185 z "},"|":{"ha":353,"x_min":121,"x_max":233,"o":"m 121 -149 l 121 1128 l 233 1128 l 233 -149 l 121 -149 z "},"}":{"ha":401,"x_min":51,"x_max":367,"o":"m 72 1214 q 196 1144 161 1183 q 244 958 244 1086 l 244 768 q 367 536 244 554 l 367 467 q 244 267 244 449 l 244 35 q 185 -132 244 -74 q 71 -182 139 -178 l 58 -103 q 147 50 147 -99 l 147 268 q 247 499 147 442 q 147 735 147 550 l 147 969 q 51 1135 147 1097 l 72 1214 z "},"~":{"ha":607,"x_min":36,"x_max":572,"o":"m 572 397 q 407 319 497 319 q 296 361 358 319 q 188 401 233 401 q 67 353 121 401 l 36 435 q 197 506 118 506 q 318 465 253 506 q 417 424 383 424 q 538 479 468 424 l 572 397 z "}," ":{"ha":328,"x_min":0,"x_max":0,"o":""},"¢":{"ha":736,"x_min":72,"x_max":526,"o":"m 526 28 q 342 -14 449 -14 q 72 371 72 -14 q 357 763 72 763 q 524 729 456 763 l 499 631 q 363 668 435 668 q 194 385 194 668 q 240 160 194 239 q 364 82 283 82 q 501 119 429 82 l 526 28 m 183 -156 l 78 -122 l 415 1136 l 522 1103 l 183 -156 z "},"£":{"ha":621,"x_min":56,"x_max":592,"o":"m 276 508 l 276 361 q 217 96 276 154 l 586 96 l 586 0 l 65 0 l 56 75 q 163 367 163 161 l 163 508 l 57 508 l 57 601 l 163 601 l 163 751 q 226 954 163 875 q 408 1040 294 1040 q 592 1001 499 1040 l 561 908 q 424 942 494 942 q 276 749 276 942 l 276 601 l 433 601 l 433 508 l 276 508 z "},"¥":{"ha":736,"x_min":0,"x_max":775,"o":"m 681 961 l 774 990 l 774 872 q 475 214 556 504 l 336 0 l 332 88 q 403 443 403 329 l 371 475 l 46 804 l 0 872 q 67 951 11 951 l 100 951 q 471 515 125 903 l 681 961 m 100 285 l 100 375 l 674 375 l 674 285 l 100 285 m 100 465 l 100 556 l 674 556 l 674 465 l 100 465 z "},"¨":{"ha":417,"x_min":-1,"x_max":414,"o":"m 122 919 q 74 899 103 899 q -1 972 -1 899 q 74 1049 -1 1049 q 124 1028 103 1049 q 143 972 143 1006 q 122 919 143 940 m 339 899 q 269 972 269 899 q 289 1028 269 1006 q 339 1049 308 1049 q 393 1028 371 1049 q 414 972 414 1006 q 339 899 414 899 z "},"©":{"ha":1411,"x_min":94,"x_max":1317,"o":"m 1149 -101 q 706 -315 976 -315 q 263 -103 435 -315 q 94 417 94 103 q 263 933 94 726 q 706 1147 436 1147 q 1149 933 976 1147 q 1317 417 1317 726 q 1149 -101 1317 106 m 1071 863 q 704 1047 928 1047 q 338 863 481 1047 q 199 415 199 682 q 339 -35 199 144 q 704 -218 481 -218 q 1072 -32 928 -218 q 1211 415 1211 147 q 1071 863 1211 683 m 936 40 q 703 -19 833 -19 q 465 96 557 -19 q 369 426 369 217 q 469 731 369 617 q 703 838 564 838 q 929 778 818 838 l 896 681 q 718 739 790 739 q 571 672 633 739 q 490 426 490 589 q 572 156 490 253 q 710 79 636 79 q 903 135 797 79 l 936 40 z "},"«":{"ha":713,"x_min":61,"x_max":638,"o":"m 208 378 l 368 106 l 275 64 l 61 378 l 275 692 l 368 654 l 208 378 m 478 378 l 638 106 l 544 64 l 331 378 l 544 692 l 638 654 l 478 378 z "},"­":{"ha":513,"x_min":71,"x_max":438,"o":"m 71 404 l 71 503 l 438 503 l 438 404 l 71 404 z "},"®":{"ha":1411,"x_min":94,"x_max":1317,"o":"m 1149 -101 q 706 -315 976 -315 q 263 -103 435 -315 q 94 417 94 103 q 263 933 94 726 q 706 1147 436 1147 q 1149 933 976 1147 q 1317 417 1317 726 q 1149 -101 1317 106 m 1071 863 q 704 1047 928 1047 q 338 863 481 1047 q 199 415 199 682 q 339 -35 199 144 q 704 -218 481 -218 q 1072 -32 928 -218 q 1211 415 1211 147 q 1071 863 1211 683 m 799 371 l 967 -1 l 849 -1 l 707 344 q 628 338 667 338 q 594 339 611 338 l 594 -1 l 489 -1 l 489 824 l 663 824 q 883 743 811 824 q 938 588 938 681 q 799 371 938 433 m 636 736 l 594 736 l 594 419 q 599 419 596 419 q 829 582 829 419 q 636 736 829 736 z "},"´":{"ha":169,"x_min":-24,"x_max":199,"o":"m 106 1103 l 199 1050 l 46 843 l -24 878 l 106 1103 z "},"µ":{"ha":722,"x_min":103,"x_max":628,"o":"m 103 749 l 222 749 l 222 207 q 363 79 281 79 q 456 138 417 79 q 496 293 496 199 l 496 749 l 614 749 l 614 226 q 628 0 614 122 l 522 0 q 515 86 518 40 q 371 -19 460 -19 q 222 57 283 -19 l 222 -379 l 103 -379 l 103 749 z "},"¸":{"ha":343,"x_min":72,"x_max":335,"o":"m 206 -96 q 335 -229 335 -122 q 168 -358 335 -358 q 72 -344 121 -358 l 89 -281 q 161 -293 129 -293 q 250 -224 250 -293 q 131 -149 250 -157 l 149 3 l 219 3 l 206 -96 z "},"»":{"ha":713,"x_min":75,"x_max":651,"o":"m 75 651 l 167 692 l 382 378 l 165 65 l 75 103 l 238 378 l 75 651 m 344 651 l 436 692 l 651 378 l 435 65 l 344 103 l 507 378 l 344 651 z "},"ˆ":{"ha":331,"x_min":-25,"x_max":360,"o":"m 360 897 l 304 842 l 167 953 l 32 842 l -25 889 l 167 1065 l 360 897 z "},"˚":{"ha":263,"x_min":-15,"x_max":268,"o":"m 228 868 q 125 821 188 821 q 24 868 64 821 q -15 981 -15 914 q 25 1093 -15 1047 q 125 1140 65 1140 q 228 1093 188 1140 q 268 981 268 1047 q 228 868 268 914 m 125 1069 q 60 981 60 1069 q 125 893 60 893 q 174 921 156 893 q 192 981 192 946 q 125 1069 192 1069 z "},"˜":{"ha":439,"x_min":3,"x_max":407,"o":"m 407 944 q 275 869 347 869 q 196 892 235 869 q 135 913 157 913 q 46 867 107 913 l 3 924 q 136 996 71 996 q 213 975 174 996 q 275 954 253 954 q 360 997 311 954 l 407 944 z "},"΄":{"ha":169,"x_min":-24,"x_max":199,"o":"m 106 1103 l 199 1050 l 46 843 l -24 878 l 106 1103 z "},"΅":{"ha":717,"x_min":96,"x_max":575,"o":"m 218 922 q 169 903 199 903 q 117 922 138 903 q 96 975 96 943 q 118 1029 96 1007 q 169 1049 139 1049 q 219 1028 199 1049 q 239 975 239 1006 q 218 922 239 943 m 553 922 q 500 903 532 903 q 451 922 471 903 q 431 975 431 943 q 451 1028 431 1006 q 500 1049 471 1049 q 553 1028 532 1049 q 575 975 575 1006 q 553 922 575 943 m 336 1140 l 440 1110 l 333 872 l 258 890 l 336 1140 z "},"Α":{"ha":931,"x_min":-28,"x_max":693,"o":"m 503 1003 l 532 1003 q 693 215 569 968 l 679 118 l 592 118 q 326 383 561 118 l 300 410 q 60 0 186 313 l -28 0 l -28 88 q 326 756 14 146 q 503 1003 353 881 m 444 796 q 328 501 444 735 l 601 233 l 592 383 q 503 796 540 563 l 444 796 z "},"Β":{"ha":907,"x_min":64,"x_max":956,"o":"m 263 1003 l 296 1003 q 857 632 782 739 l 857 603 q 526 489 857 538 l 526 461 q 956 232 956 269 l 956 203 q 64 4 956 82 l 64 61 q 163 118 64 118 l 189 311 q 178 369 178 343 q 196 432 178 404 q 179 479 179 457 q 197 526 179 504 l 201 582 q 238 701 224 603 l 226 856 l 235 924 q 263 1003 240 983 m 314 860 l 321 561 l 529 560 l 672 585 l 768 635 l 314 860 m 296 432 l 261 103 l 407 128 l 561 133 l 819 218 q 296 432 411 432 z "},"Γ":{"ha":811,"x_min":67,"x_max":799,"o":"m 154 938 l 200 928 q 235 932 217 932 q 293 922 264 932 l 390 906 q 765 994 658 994 l 799 928 q 589 846 799 886 l 467 794 q 403 801 432 801 q 190 481 190 801 q 200 329 190 413 q 199 51 199 175 l 167 -4 l 133 -4 q 67 63 67 -4 l 97 628 l 86 919 l 154 938 z "},"Δ":{"ha":947,"x_min":0,"x_max":915,"o":"m 796 994 l 796 789 q 915 103 915 318 l 756 0 l 557 0 q 199 68 457 0 q 132 51 164 51 q 69 68 100 51 l 0 103 l 0 138 q 40 172 0 172 l 0 240 l 38 332 q 43 332 40 332 q 517 994 281 332 l 796 994 m 606 879 l 158 208 q 660 122 440 122 q 783 129 724 122 l 790 240 q 689 856 749 376 l 606 879 z "},"Ε":{"ha":907,"x_min":57,"x_max":942,"o":"m 732 999 l 758 929 l 308 390 l 489 436 q 942 517 585 482 l 942 482 q 526 350 942 413 l 193 214 l 467 192 q 838 68 739 104 q 758 0 838 0 l 393 76 l 249 88 l 72 83 l 57 157 q 732 999 238 582 z "},"Ζ":{"ha":835,"x_min":47,"x_max":857,"o":"m 133 983 q 857 694 679 744 l 857 665 q 268 222 857 639 q 533 149 481 215 q 660 169 604 169 q 742 156 706 169 q 765 157 754 157 q 828 115 828 157 l 828 88 q 750 35 828 35 q 706 38 731 35 q 101 218 101 124 q 113 244 101 232 q 661 638 510 538 q 47 897 151 860 l 47 926 q 133 983 47 983 z "},"Η":{"ha":1131,"x_min":65,"x_max":1011,"o":"m 571 990 l 644 990 q 683 906 675 986 l 717 514 q 921 476 801 476 q 938 476 929 476 q 974 514 938 514 l 1011 440 q 725 397 886 397 l 713 293 q 644 0 701 85 l 607 0 l 603 464 l 251 438 q 225 275 225 414 q 240 0 225 171 l 204 0 q 65 774 93 0 q 129 918 75 918 q 183 719 172 893 l 192 535 l 607 550 q 581 760 581 597 q 583 885 581 815 q 571 990 571 953 z "},"Θ":{"ha":1079,"x_min":44,"x_max":1067,"o":"m 606 971 l 643 953 q 944 504 678 915 l 1040 489 l 1067 428 q 944 349 974 428 l 975 272 q 636 53 896 139 l 407 38 q 154 301 154 83 q 156 338 154 318 q 96 332 119 332 q 46 357 46 332 q 64 399 46 374 q 407 875 210 463 q 606 971 539 932 m 549 854 q 304 504 388 676 l 240 406 l 872 429 l 808 563 q 549 854 640 825 m 244 232 q 488 117 293 185 q 853 349 853 167 l 822 349 q 676 351 744 351 q 240 251 240 351 q 244 232 240 242 z "},"Ι":{"ha":540,"x_min":53,"x_max":206,"o":"m 129 1003 l 206 924 l 189 651 l 182 518 q 197 200 182 349 q 199 153 199 175 q 129 8 199 24 l 89 8 l 53 90 l 58 363 l 58 910 q 129 1003 71 963 z "},"Κ":{"ha":964,"x_min":68,"x_max":961,"o":"m 157 968 q 208 347 185 915 l 750 968 l 779 968 q 839 899 839 957 l 796 860 q 328 347 513 510 l 471 319 q 779 276 636 308 l 861 251 q 956 189 956 246 q 953 165 956 178 q 960 140 960 150 q 915 114 960 114 q 854 122 892 114 q 231 265 839 174 l 246 61 q 256 28 256 40 q 217 0 256 0 l 126 0 l 126 35 l 68 829 q 157 968 113 968 z "},"Λ":{"ha":925,"x_min":0,"x_max":892,"o":"m 607 999 q 856 250 725 981 q 892 214 892 250 q 819 143 892 143 l 794 174 q 633 825 749 231 q 229 235 561 824 l 107 0 l 71 0 q 0 71 0 0 q 607 999 450 842 z "},"Μ":{"ha":1288,"x_min":32,"x_max":1132,"o":"m 1051 964 l 1088 964 q 1132 671 1122 935 l 1124 478 l 1119 128 q 1088 40 1113 78 l 982 40 l 1001 172 l 1017 726 l 671 174 l 606 181 l 390 643 q 138 0 175 0 l 32 0 l 69 92 q 372 857 318 744 q 560 522 451 844 q 650 333 622 383 l 1051 964 z "},"Ν":{"ha":1065,"x_min":15,"x_max":979,"o":"m 900 1008 q 979 928 979 996 q 824 339 858 633 l 839 156 q 844 117 844 135 q 739 4 844 38 q 744 114 744 65 q 668 318 744 303 l 356 488 l 193 599 l 153 97 l 15 4 l 15 44 q 104 736 97 506 l 113 829 q 186 908 139 908 q 247 846 229 889 l 219 718 q 739 406 561 433 l 772 621 q 900 1008 829 940 z "},"Ξ":{"ha":910,"x_min":0,"x_max":903,"o":"m 482 1013 q 519 963 515 1004 l 522 767 l 693 794 l 813 794 l 813 739 q 726 692 813 700 l 522 683 l 522 517 l 813 549 l 843 493 q 783 438 843 438 l 531 438 l 531 267 l 663 301 l 874 356 l 903 301 l 903 274 q 821 242 885 258 l 531 192 l 576 47 l 482 0 l 422 192 l 275 183 l 106 188 q 29 219 64 192 l 29 246 q 90 279 58 271 l 410 263 l 422 329 l 422 431 l 90 411 l 90 465 q 150 490 100 490 l 422 521 l 429 692 l 271 681 l 60 671 l 0 713 l 64 764 l 422 767 l 422 958 q 482 1013 432 1013 z "},"Ο":{"ha":1033,"x_min":56,"x_max":960,"o":"m 507 899 l 286 856 l 179 736 l 199 638 l 190 560 l 400 543 l 393 436 l 340 431 l 189 469 q 175 376 175 425 q 204 231 175 307 q 574 147 378 147 q 626 149 600 147 q 858 476 858 293 q 850 546 858 510 q 507 899 678 810 m 279 956 l 464 986 q 960 331 942 986 q 378 28 822 46 q 63 308 133 75 l 57 522 q 56 557 56 543 q 58 583 56 578 l 60 679 q 279 956 132 906 z "},"Π":{"ha":1003,"x_min":57,"x_max":949,"o":"m 131 1006 q 503 857 392 857 l 576 857 q 838 968 700 857 l 874 968 l 949 932 l 911 560 l 911 522 l 896 89 l 838 3 q 763 78 763 3 l 808 810 l 544 754 l 354 761 l 188 849 l 217 675 q 253 192 217 440 q 254 164 254 176 q 206 78 254 78 l 131 78 l 128 263 l 94 597 l 57 968 l 131 1006 z "},"Ρ":{"ha":846,"x_min":61,"x_max":664,"o":"m 157 994 l 196 994 q 664 618 293 990 l 664 550 q 142 369 664 439 l 221 168 l 254 69 q 161 15 239 42 l 61 347 q 79 824 79 644 l 79 926 q 157 994 90 994 m 178 838 l 154 464 l 381 489 q 582 565 468 517 q 193 901 506 658 l 178 838 z "},"Σ":{"ha":849,"x_min":90,"x_max":751,"o":"m 494 994 l 525 994 q 588 932 588 985 l 240 525 l 199 490 q 711 621 488 590 l 751 525 q 401 0 610 132 l 401 31 q 649 515 401 93 l 556 492 q 153 374 464 472 l 90 465 l 90 497 q 494 994 442 942 z "},"Τ":{"ha":858,"x_min":10,"x_max":838,"o":"m 814 953 l 838 882 q 518 785 804 854 q 443 196 472 386 l 497 282 l 569 353 q 594 318 569 318 q 447 0 465 64 l 400 0 q 351 106 351 0 q 424 740 351 246 l 411 767 q 385 765 400 765 q 174 782 317 765 q 125 781 147 781 q 10 811 25 781 l 10 882 l 281 867 q 296 867 288 867 q 814 953 460 867 z "},"Υ":{"ha":854,"x_min":-29,"x_max":882,"o":"m 772 961 l 882 990 l 882 872 q 529 214 625 504 l 367 0 l 361 88 q 444 443 444 329 l 407 475 l 25 804 l -29 872 q 50 951 -17 951 l 89 951 q 525 515 118 903 l 772 961 z "},"Φ":{"ha":1124,"x_min":129,"x_max":1013,"o":"m 636 994 q 704 938 704 985 l 704 910 l 669 711 q 1013 457 971 515 l 1013 372 l 667 190 q 685 63 685 111 q 669 3 685 19 l 601 3 q 571 169 590 29 q 457 179 499 174 q 129 326 147 218 l 132 432 q 431 654 263 593 l 464 599 q 232 376 254 438 l 251 338 q 464 286 293 286 l 567 286 l 567 768 q 578 896 567 832 q 636 994 585 994 m 665 614 l 669 485 l 663 301 l 842 343 l 913 397 q 914 407 914 403 q 768 550 914 472 l 665 614 z "},"Χ":{"ha":986,"x_min":8,"x_max":946,"o":"m 765 1010 l 875 1010 l 550 649 q 946 181 915 378 l 838 181 q 558 518 736 356 l 500 549 q 261 0 357 269 l 153 0 l 188 119 q 406 613 406 589 q 8 901 139 847 q 81 974 19 974 l 153 939 l 475 678 q 765 1010 633 915 z "},"Ψ":{"ha":1124,"x_min":117,"x_max":1017,"o":"m 582 994 l 614 922 q 582 471 613 604 l 613 471 l 924 785 l 954 785 q 1017 732 1017 776 l 983 696 q 528 176 551 404 q 535 93 535 128 q 489 0 535 0 l 396 0 l 396 26 q 488 407 396 89 q 117 758 215 636 l 117 785 l 210 785 q 489 524 463 524 l 508 874 q 506 900 506 888 q 582 994 506 961 z "},"Ω":{"ha":1079,"x_min":40,"x_max":1003,"o":"m 713 964 q 922 649 922 769 l 922 608 l 763 478 l 693 442 q 1003 7 885 163 l 854 26 q 543 431 801 128 q 221 124 324 206 l 81 47 l 81 128 q 407 463 81 168 q 40 649 40 554 l 40 689 q 703 964 374 964 q 713 964 707 964 m 633 874 q 175 672 390 801 l 281 596 q 535 535 411 554 q 736 582 661 549 l 801 658 q 633 874 806 776 z "},"Ϊ":{"ha":540,"x_min":-78,"x_max":338,"o":"m 129 1003 l 206 924 l 189 651 l 182 518 q 197 200 182 349 q 199 153 199 175 q 129 8 199 24 l 89 8 l 53 90 l 58 363 l 58 910 q 129 1003 71 963 m 46 1197 q -3 1176 26 1176 q -78 1250 -78 1176 q -3 1326 -78 1326 q 47 1306 26 1326 q 67 1250 67 1283 q 46 1197 67 1218 m 263 1176 q 193 1250 193 1176 q 213 1306 193 1283 q 263 1326 232 1326 q 317 1306 294 1326 q 338 1250 338 1283 q 263 1176 338 1176 z "},"Ϋ":{"ha":854,"x_min":-29,"x_max":882,"o":"m 772 961 l 882 990 l 882 872 q 529 214 625 504 l 367 0 l 361 88 q 444 443 444 329 l 407 475 l 25 804 l -29 872 q 50 951 -17 951 l 89 951 q 525 515 118 903 l 772 961 m 343 1197 q 294 1176 324 1176 q 219 1250 219 1176 q 294 1326 219 1326 q 344 1306 324 1326 q 364 1250 364 1283 q 343 1197 364 1218 m 560 1176 q 490 1250 490 1176 q 510 1306 490 1283 q 560 1326 529 1326 q 614 1306 592 1326 q 635 1250 635 1283 q 560 1176 635 1176 z "},"ά":{"ha":735,"x_min":65,"x_max":719,"o":"m 614 -17 q 615 -18 615 -18 q 526 221 615 -18 q 435 50 476 101 q 306 -18 379 -18 q 125 93 188 -18 q 65 369 65 196 q 124 650 65 543 q 308 767 188 767 q 444 701 390 767 q 531 532 483 654 q 618 767 558 615 l 719 722 q 589 381 672 611 q 651 206 607 336 q 718 29 689 97 l 614 -17 m 401 164 q 475 367 424 208 q 399 582 415 547 q 306 669 358 669 q 215 576 246 669 q 189 376 189 499 q 219 165 189 246 q 311 79 251 79 q 401 164 361 79 m 535 1103 l 628 1050 l 475 843 l 406 878 l 535 1103 z "},"έ":{"ha":522,"x_min":53,"x_max":513,"o":"m 165 404 q 72 574 72 456 q 136 713 72 663 q 317 764 201 764 q 496 731 399 764 l 478 638 q 321 669 401 669 q 194 565 194 669 q 236 474 194 510 q 361 432 282 433 l 424 429 l 425 353 l 354 357 q 336 357 344 357 q 178 214 178 357 q 331 79 178 79 q 483 108 400 79 l 500 15 q 324 -14 403 -14 q 53 206 53 -14 q 165 404 53 340 m 419 1103 l 513 1050 l 360 843 l 290 878 l 419 1103 z "},"ή":{"ha":726,"x_min":108,"x_max":624,"o":"m 506 -400 l 506 501 q 414 667 506 667 q 228 540 329 667 l 228 0 l 108 0 l 108 749 l 219 749 l 219 650 q 447 769 332 769 q 624 511 624 769 l 624 -400 l 506 -400 m 508 1103 l 601 1050 l 449 843 l 379 878 l 508 1103 z "},"ί":{"ha":344,"x_min":106,"x_max":454,"o":"m 331 0 q 264 -6 304 -6 q 133 57 168 -6 q 106 222 106 106 l 106 749 l 222 749 l 222 222 q 289 93 222 93 q 322 94 311 93 l 331 0 m 361 1103 l 454 1050 l 301 843 l 232 878 l 361 1103 z "},"ΰ":{"ha":685,"x_min":92,"x_max":624,"o":"m 528 774 q 624 378 624 590 q 622 338 624 358 q 550 89 615 181 q 338 -15 475 -15 q 97 288 97 -15 q 99 325 97 306 l 101 414 q 106 539 106 479 q 92 749 106 651 l 208 749 q 222 503 222 642 q 221 415 222 461 l 217 318 q 217 289 217 303 q 346 83 217 83 q 500 335 489 83 q 500 368 500 351 q 413 725 500 557 l 528 774 m 239 922 q 190 903 219 903 q 138 922 158 903 q 117 975 117 943 q 139 1029 117 1007 q 190 1049 160 1049 q 240 1028 219 1049 q 260 975 260 1006 q 239 922 260 943 m 574 922 q 521 903 553 903 q 472 922 492 903 q 451 975 451 943 q 472 1028 451 1006 q 521 1049 492 1049 q 574 1028 553 1049 q 596 975 596 1006 q 574 922 596 943 m 357 1140 l 461 1110 l 354 872 l 279 890 l 357 1140 z "},"α":{"ha":735,"x_min":65,"x_max":719,"o":"m 614 -17 q 615 -18 615 -18 q 526 221 615 -18 q 435 50 476 101 q 306 -18 379 -18 q 125 93 188 -18 q 65 369 65 196 q 124 650 65 543 q 308 767 188 767 q 444 701 390 767 q 531 532 483 654 q 618 767 558 615 l 719 722 q 589 381 672 611 q 651 206 607 336 q 718 29 689 97 l 614 -17 m 401 164 q 475 367 424 208 q 399 582 415 547 q 306 669 358 669 q 215 576 246 669 q 189 376 189 499 q 219 165 189 246 q 311 79 251 79 q 401 164 361 79 z "},"β":{"ha":693,"x_min":108,"x_max":633,"o":"m 493 610 q 633 315 633 544 q 574 88 633 176 q 353 -19 500 -19 q 226 28 307 -19 l 226 -318 l 108 -318 l 108 800 q 172 1042 108 953 q 367 1140 240 1139 q 375 1140 371 1140 q 543 1063 485 1140 q 593 879 593 993 q 493 610 593 724 m 226 136 q 351 79 293 79 q 474 151 432 79 q 510 317 510 214 q 476 467 510 404 q 376 538 440 538 q 288 521 350 538 l 281 610 q 382 628 378 628 q 474 864 474 708 q 367 1046 474 1046 q 361 1046 364 1046 q 226 806 226 1042 l 226 136 z "},"γ":{"ha":568,"x_min":-29,"x_max":551,"o":"m 551 749 q 322 -7 549 517 q 343 -392 343 -225 l 226 -392 q 226 -336 226 -364 q 214 -8 226 -181 q -29 749 181 344 l 110 749 q 299 185 243 503 q 432 749 426 517 l 551 749 z "},"δ":{"ha":594,"x_min":42,"x_max":567,"o":"m 107 75 q 42 296 42 163 q 251 671 42 525 q 110 928 110 810 q 297 1103 110 1103 q 506 1040 378 1103 l 474 953 q 303 1010 374 1010 q 226 928 226 1010 q 371 713 226 853 q 567 301 567 511 q 492 61 567 146 q 296 -18 419 -18 q 107 75 178 -18 m 315 603 q 157 296 157 472 q 200 136 157 199 q 306 76 242 76 q 406 131 367 76 q 449 293 449 190 q 315 603 449 440 z "},"ε":{"ha":522,"x_min":53,"x_max":500,"o":"m 165 404 q 72 574 72 456 q 136 713 72 663 q 317 764 201 764 q 496 731 399 764 l 478 638 q 321 669 401 669 q 194 565 194 669 q 236 474 194 510 q 361 432 282 433 l 424 429 l 425 353 l 354 357 q 336 357 344 357 q 178 214 178 357 q 331 79 178 79 q 483 108 400 79 l 500 15 q 324 -14 403 -14 q 53 206 53 -14 q 165 404 53 340 z "},"ζ":{"ha":479,"x_min":57,"x_max":529,"o":"m 356 -281 q 421 -90 421 -153 q 339 -19 421 -19 q 131 49 197 -19 q 57 297 57 124 q 363 1038 57 647 l 76 1038 l 76 1128 l 492 1128 l 517 1054 q 176 307 176 692 q 222 124 176 175 q 350 79 260 79 q 529 -72 529 79 q 444 -326 529 -171 l 356 -281 z "},"η":{"ha":726,"x_min":108,"x_max":624,"o":"m 506 -400 l 506 501 q 414 667 506 667 q 228 540 329 667 l 228 0 l 108 0 l 108 749 l 219 749 l 219 650 q 447 769 332 769 q 624 511 624 769 l 624 -400 l 506 -400 z "},"θ":{"ha":681,"x_min":71,"x_max":607,"o":"m 338 -15 q 119 188 186 -15 q 71 567 71 333 q 338 1136 71 1136 q 607 567 607 1136 q 338 -15 607 -15 m 493 533 l 186 533 q 340 79 192 79 q 493 533 488 79 m 186 622 l 492 622 q 451 911 488 800 q 336 1042 411 1042 q 186 622 197 1042 z "},"ι":{"ha":344,"x_min":106,"x_max":331,"o":"m 331 0 q 264 -6 304 -6 q 133 57 168 -6 q 106 222 106 106 l 106 749 l 222 749 l 222 222 q 289 93 222 93 q 322 94 311 93 l 331 0 z "},"κ":{"ha":600,"x_min":110,"x_max":615,"o":"m 228 432 q 258 431 249 432 l 458 749 l 603 749 l 365 410 q 532 219 476 368 l 615 0 l 482 0 l 422 178 q 344 306 390 272 q 228 338 307 333 l 228 0 l 110 0 l 110 749 l 228 749 l 228 432 z "},"λ":{"ha":563,"x_min":-15,"x_max":572,"o":"m 283 572 l 107 0 l -15 0 l 239 726 l 219 794 q 133 956 188 908 q -11 1001 81 1000 l 1 1101 q 207 1033 131 1100 q 336 813 283 968 l 572 0 l 446 0 l 283 572 z "},"ν":{"ha":622,"x_min":11,"x_max":611,"o":"m 360 0 l 265 0 l 11 749 l 144 749 l 318 160 l 483 749 l 611 749 l 360 0 z "},"ξ":{"ha":469,"x_min":47,"x_max":526,"o":"m 211 586 q 72 813 72 639 q 181 1043 72 954 q 439 1147 275 1119 l 454 1057 q 194 817 194 996 q 249 688 194 726 q 331 664 282 664 q 376 668 353 664 l 433 681 l 460 593 l 397 574 q 232 464 294 546 q 171 269 171 381 q 356 79 171 79 q 526 -68 526 75 q 438 -326 526 -176 l 344 -281 q 410 -89 410 -146 q 324 -19 410 -19 q 124 51 196 -18 q 47 260 47 125 q 211 586 47 474 z "},"ο":{"ha":708,"x_min":72,"x_max":636,"o":"m 139 653 q 363 767 214 767 q 636 385 636 767 q 350 -18 636 -18 q 136 92 208 -18 q 72 367 72 190 q 139 653 72 549 m 353 78 q 515 382 515 78 q 357 672 515 672 q 193 372 193 672 q 353 78 193 78 z "},"π":{"ha":690,"x_min":3,"x_max":664,"o":"m 664 0 q 600 -6 640 -6 q 474 57 507 -6 q 446 222 446 106 l 446 657 l 242 657 q 197 0 242 176 l 82 0 q 131 656 131 197 q 22 633 71 651 l 3 719 q 179 749 65 749 l 656 749 l 656 657 l 560 657 l 560 222 q 624 93 560 93 q 657 94 647 93 l 664 0 z "},"ρ":{"ha":681,"x_min":94,"x_max":618,"o":"m 94 436 q 164 685 94 599 q 358 769 232 769 q 560 646 492 769 q 618 372 618 542 q 560 111 618 217 q 342 -19 486 -19 q 213 24 285 -19 l 213 -379 l 94 -379 l 94 436 m 213 136 q 335 79 278 79 q 458 169 415 79 q 493 368 493 247 q 351 674 493 674 q 213 435 213 674 l 213 136 z "},"ς":{"ha":515,"x_min":57,"x_max":533,"o":"m 353 -264 q 417 -74 417 -136 q 335 -1 417 -1 q 129 61 193 -1 q 57 303 57 131 q 176 642 57 507 q 465 803 285 765 l 490 707 q 264 571 347 672 q 176 313 176 465 q 225 135 176 183 q 350 96 264 96 q 533 -58 533 96 q 446 -312 533 -147 l 353 -264 z "},"σ":{"ha":700,"x_min":61,"x_max":703,"o":"m 522 656 q 615 358 615 543 q 550 106 615 211 q 339 -19 475 -19 q 129 93 201 -19 q 61 393 61 200 q 386 750 61 750 l 703 749 l 703 656 l 522 656 m 400 656 l 389 656 q 224 586 272 656 q 182 396 182 526 q 224 167 182 250 q 343 78 265 78 q 458 172 415 78 q 494 354 494 251 q 400 656 494 553 z "},"τ":{"ha":485,"x_min":-29,"x_max":508,"o":"m 301 657 l 301 222 q 317 121 301 150 q 368 93 332 93 q 401 94 389 93 l 407 0 q 343 -6 383 -6 q 211 57 247 -6 q 183 222 183 106 l 183 657 l 157 657 q -6 631 51 657 l -29 717 q 146 749 32 749 l 508 749 l 508 657 l 301 657 z "},"υ":{"ha":685,"x_min":92,"x_max":624,"o":"m 528 774 q 624 378 624 590 q 622 338 624 358 q 550 89 615 181 q 338 -15 475 -15 q 97 288 97 -15 q 99 325 97 306 l 101 414 q 106 539 106 479 q 92 749 106 651 l 208 749 q 222 503 222 642 q 221 415 222 461 l 217 318 q 217 289 217 303 q 346 83 217 83 q 500 335 489 83 q 500 368 500 351 q 413 725 500 557 l 528 774 z "},"φ":{"ha":803,"x_min":53,"x_max":749,"o":"m 335 43 q 53 388 53 74 q 276 753 53 671 l 317 667 q 169 392 169 607 q 335 142 169 176 l 335 522 q 518 765 335 765 q 689 667 626 765 q 749 426 749 572 q 451 43 749 76 l 451 -367 l 335 -367 l 335 43 m 451 140 q 632 417 632 171 q 596 604 632 533 q 517 669 563 669 q 451 519 451 669 l 451 140 z "},"χ":{"ha":467,"x_min":-43,"x_max":510,"o":"m 242 361 l 363 749 l 493 749 l 297 215 l 510 -354 l 379 -354 l 215 83 l 72 -369 l -43 -340 l 163 226 l -32 749 l 97 749 l 242 361 z "},"ψ":{"ha":849,"x_min":58,"x_max":788,"o":"m 361 -182 l 361 -11 q 92 331 92 22 l 92 414 q 58 749 92 594 l 174 749 q 210 415 210 572 l 210 339 q 361 90 210 122 l 361 890 l 481 890 l 481 86 q 669 368 669 114 q 560 717 669 550 l 661 778 q 788 376 788 589 q 481 -12 788 14 l 481 -182 l 361 -182 z "},"ω":{"ha":953,"x_min":74,"x_max":883,"o":"m 806 769 q 883 404 883 589 q 824 118 883 235 q 632 -15 756 -15 q 469 78 521 -15 q 306 -15 408 -15 q 74 313 74 -15 q 146 769 74 521 l 257 732 q 190 318 190 489 q 307 83 190 83 q 389 163 356 83 q 421 351 421 239 l 421 597 l 535 597 l 535 318 q 635 83 535 83 q 733 189 697 83 q 763 397 763 276 q 696 728 763 563 l 806 769 z "}," ":{"ha":663,"x_min":0,"x_max":0,"o":""}," ":{"ha":1326,"x_min":0,"x_max":0,"o":""}," ":{"ha":663,"x_min":0,"x_max":0,"o":""}," ":{"ha":1326,"x_min":0,"x_max":0,"o":""}," ":{"ha":442,"x_min":0,"x_max":0,"o":""}," ":{"ha":331,"x_min":0,"x_max":0,"o":""}," ":{"ha":221,"x_min":0,"x_max":0,"o":""}," ":{"ha":221,"x_min":0,"x_max":0,"o":""}," ":{"ha":165,"x_min":0,"x_max":0,"o":""}," ":{"ha":265,"x_min":0,"x_max":0,"o":""}," ":{"ha":74,"x_min":0,"x_max":0,"o":""},"‐":{"ha":513,"x_min":71,"x_max":438,"o":"m 71 404 l 71 503 l 438 503 l 438 404 l 71 404 z "},"‑":{"ha":513,"x_min":71,"x_max":438,"o":"m 71 404 l 71 503 l 438 503 l 438 404 l 71 404 z "},"–":{"ha":776,"x_min":71,"x_max":701,"o":"m 71 404 l 71 503 l 701 503 l 701 404 l 71 404 z "},"—":{"ha":1174,"x_min":71,"x_max":1099,"o":"m 71 404 l 71 503 l 1099 503 l 1099 404 l 71 404 z "},"‘":{"ha":243,"x_min":78,"x_max":268,"o":"m 268 1129 q 200 978 200 1049 q 218 922 200 951 q 236 867 236 894 q 168 801 236 801 q 103 839 126 801 q 78 936 78 876 q 196 1190 78 1061 l 268 1129 z "},"’":{"ha":243,"x_min":17,"x_max":207,"o":"m 17 831 q 85 982 85 911 q 67 1038 85 1008 q 49 1093 49 1065 q 117 1158 49 1158 q 183 1121 158 1158 q 207 1024 207 1083 q 89 769 207 899 l 17 831 z "},"‚":{"ha":243,"x_min":17,"x_max":207,"o":"m 17 -133 q 85 18 85 -53 q 67 74 85 44 q 49 129 49 101 q 117 194 49 194 q 183 157 158 194 q 207 60 207 119 q 89 -194 207 -65 l 17 -133 z "},"“":{"ha":510,"x_min":78,"x_max":535,"o":"m 268 1129 q 200 978 200 1049 q 218 922 200 951 q 236 867 236 894 q 168 801 236 801 q 103 839 126 801 q 78 936 78 876 q 196 1190 78 1061 l 268 1129 m 535 1129 q 467 978 467 1049 q 485 922 467 951 q 503 867 503 894 q 435 801 503 801 q 369 839 393 801 q 344 936 344 876 q 463 1190 344 1061 l 535 1129 z "},"”":{"ha":510,"x_min":17,"x_max":474,"o":"m 17 831 q 85 982 85 911 q 67 1038 85 1008 q 49 1093 49 1065 q 117 1158 49 1158 q 183 1121 158 1158 q 207 1024 207 1083 q 89 769 207 899 l 17 831 m 283 831 q 351 982 351 911 q 333 1038 351 1008 q 315 1093 315 1065 q 383 1158 315 1158 q 450 1121 425 1158 q 474 1024 474 1083 q 356 769 474 899 l 283 831 z "},"„":{"ha":510,"x_min":17,"x_max":474,"o":"m 17 -133 q 85 18 85 -53 q 67 74 85 44 q 49 129 49 101 q 117 194 49 194 q 183 157 158 194 q 207 60 207 119 q 89 -194 207 -65 l 17 -133 m 283 -133 q 351 18 351 -53 q 333 74 351 44 q 315 129 315 101 q 383 194 315 194 q 450 157 425 194 q 474 60 474 119 q 356 -194 474 -65 l 283 -133 z "},"•":{"ha":433,"x_min":22,"x_max":407,"o":"m 78 624 q 213 683 133 683 q 350 624 293 683 q 407 476 407 563 q 350 331 407 392 q 213 271 293 271 q 78 331 133 271 q 22 476 22 390 q 78 624 22 563 z "},"…":{"ha":1389,"x_min":86,"x_max":1169,"o":"m 222 4 q 167 -19 199 -19 q 110 4 132 -19 q 86 63 86 28 q 110 121 86 97 q 167 144 133 144 q 222 121 199 144 q 244 63 244 97 q 222 4 244 28 m 685 4 q 629 -19 661 -19 q 572 4 594 -19 q 549 63 549 28 q 572 121 549 97 q 629 144 596 144 q 685 121 661 144 q 707 63 707 97 q 685 4 707 28 m 1147 4 q 1092 -19 1124 -19 q 1035 4 1057 -19 q 1011 63 1011 28 q 1035 121 1011 97 q 1092 144 1058 144 q 1147 121 1124 144 q 1169 63 1169 97 q 1147 4 1169 28 z "}," ":{"ha":265,"x_min":0,"x_max":0,"o":""},"‹":{"ha":443,"x_min":61,"x_max":368,"o":"m 208 378 l 368 106 l 275 64 l 61 378 l 275 692 l 368 654 l 208 378 z "},"›":{"ha":443,"x_min":75,"x_max":382,"o":"m 75 651 l 167 692 l 382 378 l 165 65 l 75 103 l 238 378 l 75 651 z "}," ":{"ha":331,"x_min":0,"x_max":0,"o":""},"€":{"ha":736,"x_min":64,"x_max":801,"o":"m 457 -17 q 189 157 291 44 q 64 497 88 269 q 183 865 88 718 q 457 1011 278 1011 q 670 909 595 1011 q 750 651 744 807 l 680 679 q 622 839 673 767 q 430 939 572 911 q 223 780 266 869 q 154 507 180 690 q 270 194 183 275 q 456 96 357 114 q 632 147 555 96 q 730 313 709 197 l 801 315 q 695 85 789 157 q 457 -17 601 14 m 146 424 l 146 514 l 719 514 l 719 424 l 146 424 m 146 604 l 146 694 l 719 694 l 719 604 l 146 604 z "},"™":{"ha":925,"x_min":0,"x_max":868,"o":"m 362 1027 l 373 999 q 229 960 358 988 q 195 724 208 800 l 219 759 l 252 787 q 263 773 252 773 q 197 646 205 671 l 176 646 q 154 688 154 646 q 186 942 154 744 l 181 953 q 169 952 176 952 q 74 959 138 952 q 52 958 62 958 q 0 970 7 958 l 0 999 l 122 993 q 129 993 125 993 q 362 1027 203 993 m 831 1026 l 847 1026 q 867 909 863 1014 l 863 831 l 862 691 q 847 656 858 671 l 800 656 l 808 709 l 815 931 l 660 710 l 630 713 l 533 898 q 420 640 437 640 l 372 640 l 389 677 q 525 983 501 938 q 610 849 561 978 q 650 774 638 794 l 831 1026 z "}}}
